{"title":"I. Robot.3D.2004.BRRip.HSBS.1080p.Hun.Eng","uid":9522050,"size":15366435515,"categoryP":"video","categoryS":"3d","magnet":"?xt=urn:btih:48f4a87a7df410b68c7123886eb49035eeafe2cd&amp;dn=I.+Robot.3D.2004.BRRip.HSBS.1080p.Hun.Eng&amp;tr=udp%3A%2F%2Ftracker.openbittorrent.com%3A80&amp;tr=udp%3A%2F%2Fopen.demonii.com%3A1337&amp;tr=udp%3A%2F%2Ftracker.coppersurfer.tk%3A6969&amp;tr=udp%3A%2F%2Fexodus.desync.com%3A6969","seeders":0,"leechers":1,"uploader":"rinoceros","files":-1,"time":1390659760,"description":"I. Robot.3D.2004.BRRip.HSBS.1080p.Hun.Eng\n &lt;a href=&quot;\nhttp://www.imdb.com/title/tt0343818/&quot; rel=&quot;nofollow&quot; target=&quot;_NEW&quot;&gt;\nhttp://www.imdb.com/title/tt0343818/&lt;/a&gt;\n\nGeneral\nUnique ID                                : 198462325441264276517059801518535210729 (0x954E741B32A3500C8C6662180EC5F6E9)\nComplete name                            : F:I. Robot.3D.2004.BRRip.HSBS.1080p.Hun.EngI, Robot 3D (2004) HSBS 1080p.mkv\nFormat                                   : Matroska\nFormat version                           : Version 4 / Version 2\nFile size                                : 14.3 GiB\nDuration                                 : 1h 54mn\nOverall bit rate mode                    : Variable\nOverall bit rate                         : 17.9 Mbps\nEncoded date                             : UTC 2014-01-24 19:27:29\nWriting application                      : mkvmerge v6.7.0 ('Back to the Ground') 64bit built on Jan  8 2014 15:10:52\nWriting library                          : libebml v1.3.0 + libmatroska v1.4.1\n\nVideo\nID                                       : 1\nFormat                                   : AVC\nFormat/Info                              : Advanced Video Codec\nFormat profile                           : &lt;a class=&quot;__cf_email__&quot; href=&quot;/cdn-cgi/l/email-protection&quot; data-cfemail=&quot;c981a0aea18985fde7f8&quot;&gt;[email&amp;#160;protected]&lt;/a&gt;&lt;script cf-hash='f9e31' type=&quot;text/javascript&quot;&gt;\n/* &lt;![CDATA[ */!function(){try{var t=&quot;currentScript&quot;in document?document.currentScript:function(){for(var t=document.getElementsByTagName(&quot;script&quot;),e=t.length;e--;)if(t[e].getAttribute(&quot;cf-hash&quot;))return t[e]}();if(t&amp;&amp;t.previousSibling){var e,r,n,i,c=t.previousSibling,a=c.getAttribute(&quot;data-cfemail&quot;);if(a){for(e=&quot;&quot;,r=parseInt(a.substr(0,2),16),n=2;a.length-n;n+=2)i=parseInt(a.substr(n,2),16)^r,e+=String.fromCharCode(i);e=document.createTextNode(e),c.parentNode.replaceChild(e,c)}}}catch(u){}}();/* ]]&gt; */&lt;/script&gt;\nFormat settings, CABAC                   : Yes\nFormat settings, ReFrames                : 4 frames\nCodec ID                                 : V_MPEG4/ISO/AVC\nDuration                                 : 1h 54mn\nBit rate mode                            : Variable\nBit rate                                 : 15.9 Mbps\nMaximum bit rate                         : 40.0 Mbps\nWidth                                    : 1 920 pixels\nHeight                                   : 1 080 pixels\nDisplay aspect ratio                     : 16:9\nFrame rate mode                          : Constant\nFrame rate                               : 23.976 fps\nColor space                              : YUV\nChroma subsampling                       : 4:2:0\nBit depth                                : 8 bits\nScan type                                : Progressive\nBits/(Pixel*Frame)                       : 0.319\nStream size                              : 12.5 GiB (87%)\nTitle                                    : I, Robot 3D (2004) HSBS 1080p\nWriting library                          : x264 core 129 r2230 1cffe9f\nEncoding settings                        : cabac=1 / ref=4 / deblock=1:-1:-1 / analyse=0x3:0x113 / me=tesa / subme=10 / psy=1 / psy_rd=1.20:0.80 / mixed_ref=1 / me_range=16 / chroma_me=1 / trellis=2 / 8x8dct=1 / cqm=0 / deadzone=21,11 / fast_pskip=1 / chroma_qp_offset=-4 / threads=3 / lookahead_threads=1 / sliced_threads=0 / slices=4 / nr=0 / decimate=1 / interlaced=0 / bluray_compat=0 / constrained_intra=0 / bframes=3 / b_pyramid=2 / b_adapt=2 / b_bias=0 / direct=3 / weightb=1 / open_gop=0 / weightp=0 / keyint=24 / keyint_min=1 / scenecut=40 / intra_refresh=0 / rc_lookahead=24 / rc=2pass / mbtree=1 / bitrate=15884 / ratetol=3.0 / qcomp=0.50 / qpmin=1 / qpmax=40 / qpstep=2 / cplxblur=20.0 / qblur=0.5 / vbv_maxrate=40000 / vbv_bufsize=29500 / nal_hrd=vbr / frame-packing=4 / ip_ratio=1.10 / aq=1:0.60\nDefault                                  : Yes\nForced                                   : No\nColor primaries                          : BT.709\nTransfer characteristics                 : BT.709\nMatrix coefficients                      : BT.709\n\nAudio #1\nID                                       : 2\nFormat                                   : AC-3\nFormat/Info                              : Audio Coding 3\nMode extension                           : CM (complete main)\nFormat settings, Endianness              : Big\nCodec ID                                 : A_AC3\nDuration                                 : 1h 54mn\nBit rate mode                            : Constant\nBit rate                                 : 448 Kbps\nChannel count                            : 6 channels\nChannel positions                        : Front: L C R, Side: L R, LFE\nSampling rate                            : 48.0 KHz\nBit depth                                : 16 bits\nCompression mode                         : Lossy\nStream size                              : 368 MiB (3%)\nTitle                                    : 5.1\nLanguage                                 : Hungarian\nDefault                                  : Yes\nForced                                   : No\n\nAudio #2\nID                                       : 3\nFormat                                   : DTS\nFormat/Info                              : Digital Theater Systems\nMode                                     : 16\nFormat settings, Endianness              : Big\nCodec ID                                 : A_DTS\nDuration                                 : 1h 54mn\nBit rate mode                            : Constant\nBit rate                                 : 1 509 Kbps\nChannel count                            : 6 channels\nChannel positions                        : Front: L C R, Side: L R, LFE\nSampling rate                            : 48.0 KHz\nBit depth                                : 24 bits\nCompression mode                         : Lossy\nStream size                              : 1.21 GiB (8%)\nTitle                                    : DTS\nLanguage                                 : English\nDefault                                  : No\nForced                                   : No\n &lt;a href=&quot;\nhttp://www.port.hu/en,_a_robot_i,_robot/pls/fi/films.film_page?i_topic_id=2&amp;i_film_id=64791&amp;i_city_id=-1&amp;i_county_id=-1&quot; rel=&quot;nofollow&quot; target=&quot;_NEW&quot;&gt;\nhttp://www.port.hu/en,_a_robot_i,_robot/pls/fi/films.film_page?i_topic_id=2&amp;i_film_id=64791&amp;i_city_id=-1&amp;i_county_id=-1&lt;/a&gt;","torrent":{"xt":"urn:btih:48f4a87a7df410b68c7123886eb49035eeafe2cd","amp;dn":"I.+Robot.3D.2004.BRRip.HSBS.1080p.Hun.Eng","amp;tr":["udp%3A%2F%2Ftracker.openbittorrent.com%3A80","udp%3A%2F%2Fopen.demonii.com%3A1337","udp%3A%2F%2Ftracker.coppersurfer.tk%3A6969","udp%3A%2F%2Fexodus.desync.com%3A6969"],"infoHash":"48f4a87a7df410b68c7123886eb49035eeafe2cd","infoHashBuffer":{"type":"Buffer","data":[72,244,168,122,125,244,16,182,140,113,35,136,110,180,144,53,238,175,226,205]},"announce":[],"urlList":[]}}